Coordinates
version=1
nRows=5
nColumns=40
inDegrees=yes

Units are S.I. units (second, meters, Newtons, ...)
Angles are in degrees.

endheader
time	pelvis_tilt	pelvis_list	pelvis_rotation	pelvis_tx	pelvis_ty	pelvis_tz	hip_flexion_r	hip_adduction_r	hip_rotation_r	knee_angle_r	knee_angle_r_beta	ankle_angle_r	subtalar_angle_r	mtp_angle_r	hip_flexion_l	hip_adduction_l	hip_rotation_l	knee_angle_l	knee_angle_l_beta	ankle_angle_l	subtalar_angle_l	mtp_angle_l	lumbar_extension	lumbar_bending	lumbar_rotation	arm_flex_r	arm_add_r	arm_rot_r	elbow_flex_r	pro_sup_r	wrist_flex_r	wrist_dev_r	arm_flex_l	arm_add_l	arm_rot_l	elbow_flex_l	pro_sup_l	wrist_flex_l	wrist_dev_l
     31.47000000	     -1.37311033	     -3.17505295	      1.86917108	      1.03193860	      0.92906398	      0.49561209	     13.03765368	     -0.64388640	    -15.69582206	     21.98236262	     21.98236262	     10.97337587	     -5.88408841	     -5.07839288	     25.08502321	    -13.13415798	      0.27733620	     64.28516998	     64.28516998	      8.02229411	    -17.93654624	      9.90487911	     -9.99262038	      5.60352460	      2.41116155	     19.61263444	    -20.36604334	     -6.07405486	     58.68583706	     45.29954870	      0.00000000	      0.00000000	     -0.57703816	     -9.42371674	     -5.74746927	     29.47195749	     45.36671351	      0.00000000	      0.00000000
     31.48385714	     -1.46298518	     -3.15109645	      2.39534271	      1.03103320	      0.93033339	      0.49624211	     12.16721724	     -0.48082935	    -16.08564298	     20.87079606	     20.87079606	     10.90825912	     -5.76868296	     -4.97264580	     26.36031560	    -12.97232639	      0.64551056	     62.71863376	     62.71863376	      8.20763610	    -18.05648573	     10.09592560	     -9.99848784	      5.56164918	      2.24753182	     21.02655535	    -20.22268086	     -6.18449277	     60.06447907	     45.26526101	      0.00000000	      0.00000000	     -1.08357852	     -9.16911281	     -5.68831316	     28.98519372	     45.36185905	      0.00000000	      0.00000000
     31.49771429	     -1.54830695	     -3.08921887	      2.91493832	      1.03014526	      0.93151975	      0.49680210	     11.27530420	     -0.35028069	    -16.51630706	     19.72266461	     19.72266461	     10.85373784	     -5.62475412	     -4.93962737	     27.47897894	    -12.77433795	      0.85944743	     60.86574156	     60.86574156	      8.29399050	    -18.17250599	     10.32940810	     -9.98454935	      5.48129823	      2.14390825	     22.33885899	    -20.17740992	     -6.27351789	     61.71634886	     45.22027597	      0.00000000	      0.00000000	     -1.58039939	     -8.91953117	     -5.69436237	     28.67167116	     45.36495099	      0.00000000	      0.00000000
     31.51157143	     -1.60377752	     -3.05243847	      3.45122140	      1.02921773	      0.93263067	      0.49726900	     10.36730941	     -0.19253461	    -16.96802446	     18.58438384	     18.58438384	     10.73194843	     -5.44340065	     -5.03723772	     28.41651314	    -12.56031464	      1.05621026	     58.70557690	     58.70557690	      8.35888904	    -18.20430946	     10.61482183	    -10.07026250	      5.46452276	      2.04070039	     23.52205779	    -20.18680950	     -6.34603224	     63.78267159	     45.16107757	      0.00000000	      0.00000000	     -2.04471880	     -8.66885232	     -5.76235390	     28.46254212	     45.37974098	      0.00000000	      0.00000000
     31.52542857	     -1.70289482	     -2.99406598	      3.95780315	      1.02823721	      0.93354548	      0.49759169	      9.52325242	     -0.05504157	    -17.37154752	     17.45413378	     17.45413378	     10.60663150	     -5.26858678	     -5.21556821	     29.23249175	    -12.27823133	      1.15383108	     56.21920756	     56.21920756	      8.41447707	    -18.25438276	     10.93148319	    -10.11418834	      5.41234794	      2.03510758	     24.55577228	    -20.24295078	     -6.42256307	     65.94986688	     45.09904948	      0.00000000	      0.00000000	     -2.42759485	     -8.45791313	     -5.86813913	     28.32732295	     45.40179383	      0.00000000	      0.00000000
